<svg xmlns="http://www.w3.org/2000/svg" width="2400" height="1800" viewBox="0 0 2400 1800">
  <defs>
    <style>
      .bg { fill: #f7f8fb; }
      .title { font: 700 56px Arial, sans-serif; fill: #172033; }
      .subtitle { font: 400 28px Arial, sans-serif; fill: #4c5870; }
      .section-title { font: 700 34px Arial, sans-serif; fill: #172033; }
      .box-title { font: 700 30px Arial, sans-serif; fill: #172033; }
      .box-text { font: 400 24px Arial, sans-serif; fill: #273248; }
      .small { font: 400 20px Arial, sans-serif; fill: #4c5870; }
      .tiny { font: 400 18px Arial, sans-serif; fill: #5c677d; }
      .note-title { font: 700 26px Arial, sans-serif; fill: #172033; }
      .note-text { font: 400 22px Arial, sans-serif; fill: #273248; }
      .core { fill: #eaf2ff; stroke: #3677d8; stroke-width: 4; }
      .adapter { fill: #ecf8f1; stroke: #2f9e61; stroke-width: 4; }
      .textpipe { fill: #fff4df; stroke: #d58a16; stroke-width: 4; }
      .control { fill: #f0eaff; stroke: #7b58d6; stroke-width: 4; }
      .output { fill: #ffecef; stroke: #d94862; stroke-width: 4; }
      .neutral { fill: #ffffff; stroke: #b9c0cf; stroke-width: 3; }
      .warning { fill: #fff9db; stroke: #f2c94c; stroke-width: 4; }
      .line { fill: none; stroke: #35415a; stroke-width: 5; marker-end: url(#arrow); }
      .line-soft { fill: none; stroke: #71809b; stroke-width: 4; marker-end: url(#arrow-soft); stroke-dasharray: 12 10; }
      .no-line { fill: none; stroke: #d94862; stroke-width: 5; stroke-dasharray: 16 12; marker-end: url(#arrow-red); }
      .label { font: 700 22px Arial, sans-serif; fill: #273248; }
    </style>
    <marker id="arrow" markerWidth="18" markerHeight="18" refX="15" refY="6" orient="auto" markerUnits="strokeWidth">
      <path d="M0,0 L16,6 L0,12 Z" fill="#35415a" />
    </marker>
    <marker id="arrow-soft" markerWidth="18" markerHeight="18" refX="15" refY="6" orient="auto" markerUnits="strokeWidth">
      <path d="M0,0 L16,6 L0,12 Z" fill="#71809b" />
    </marker>
    <marker id="arrow-red" markerWidth="18" markerHeight="18" refX="15" refY="6" orient="auto" markerUnits="strokeWidth">
      <path d="M0,0 L16,6 L0,12 Z" fill="#d94862" />
    </marker>
  </defs>

  <rect class="bg" x="0" y="0" width="2400" height="1800" />

  <text class="title" x="80" y="90">Cerneala Drawing Architecture</text>
  <text class="subtitle" x="80" y="135">Core Drawing is abstract. Text is prepared by Skia/HarfBuzz. MonoGame adapter performs the final draw.</text>

  <rect class="control" x="80" y="220" width="380" height="1260" rx="22" />
  <text class="section-title" x="120" y="280">1. Future Controls</text>
  <text class="small" x="120" y="320">Not implemented yet</text>

  <rect class="neutral" x="120" y="370" width="300" height="180" rx="18" />
  <text class="box-title" x="150" y="425">Button / Label / UI</text>
  <text class="box-text" x="150" y="470">Decides visual intent:</text>
  <text class="box-text" x="150" y="505">bounds, colors, text,</text>
  <text class="box-text" x="150" y="540">images, borders.</text>

  <rect class="neutral" x="120" y="610" width="300" height="220" rx="18" />
  <text class="box-title" x="150" y="665">Does NOT draw</text>
  <text class="box-text" x="150" y="710">No SpriteBatch</text>
  <text class="box-text" x="150" y="745">No Texture2D</text>
  <text class="box-text" x="150" y="780">No Skia canvas</text>
  <text class="box-text" x="150" y="815">No HarfBuzz calls</text>

  <rect class="neutral" x="120" y="900" width="300" height="250" rx="18" />
  <text class="box-title" x="150" y="955">Calls Drawing</text>
  <text class="box-text" x="150" y="1000">drawing.FillRect(...)</text>
  <text class="box-text" x="150" y="1035">drawing.DrawText(...)</text>
  <text class="box-text" x="150" y="1070">drawing.DrawImage(...)</text>
  <text class="box-text" x="150" y="1105">drawing.PushClip(...)</text>

  <rect class="core" x="560" y="220" width="520" height="1260" rx="22" />
  <text class="section-title" x="600" y="280">2. Cerneala.Drawing</text>
  <text class="small" x="600" y="320">Pure abstract core</text>

  <rect class="neutral" x="610" y="370" width="420" height="240" rx="18" />
  <text class="box-title" x="645" y="425">DrawingContext</text>
  <text class="box-text" x="645" y="470">Records commands only.</text>
  <text class="box-text" x="645" y="515">It does not execute them.</text>
  <text class="box-text" x="645" y="560">It does not know backend.</text>

  <rect class="neutral" x="610" y="670" width="420" height="295" rx="18" />
  <text class="box-title" x="645" y="725">DrawCommandList</text>
  <text class="box-text" x="645" y="770">FillRectangle</text>
  <text class="box-text" x="645" y="805">DrawRectangle</text>
  <text class="box-text" x="645" y="840">DrawImage</text>
  <text class="box-text" x="645" y="875">DrawText</text>
  <text class="box-text" x="645" y="910">PushClip / PopClip</text>

  <rect class="neutral" x="610" y="1025" width="420" height="320" rx="18" />
  <text class="box-title" x="645" y="1080">Core Types</text>
  <text class="box-text" x="645" y="1125">DrawRect, DrawPoint</text>
  <text class="box-text" x="645" y="1160">DrawColor</text>
  <text class="box-text" x="645" y="1195">DrawTextRun</text>
  <text class="box-text" x="645" y="1230">IDrawImage, IDrawFont</text>
  <text class="box-text" x="645" y="1265">IDrawingBackend</text>
  <text class="tiny" x="645" y="1310">No MonoGame / No Skia / No HarfBuzz</text>

  <rect class="textpipe" x="1180" y="220" width="500" height="1260" rx="22" />
  <text class="section-title" x="1220" y="280">3. Cerneala.Text</text>
  <text class="small" x="1220" y="320">Text preparation only</text>

  <rect class="neutral" x="1230" y="370" width="400" height="230" rx="18" />
  <text class="box-title" x="1265" y="425">SystemFontSource</text>
  <text class="box-text" x="1265" y="470">Loads OS fonts.</text>
  <text class="box-text" x="1265" y="505">Uses Skia font manager.</text>
  <text class="box-text" x="1265" y="540">No MonoGame Content fonts.</text>

  <rect class="neutral" x="1230" y="660" width="400" height="240" rx="18" />
  <text class="box-title" x="1265" y="715">Skia + HarfBuzz</text>
  <text class="box-text" x="1265" y="760">Shape text.</text>
  <text class="box-text" x="1265" y="795">Measure glyphs.</text>
  <text class="box-text" x="1265" y="830">Rasterize text pixels.</text>
  <text class="tiny" x="1265" y="870">Not the final screen renderer.</text>

  <rect class="neutral" x="1230" y="960" width="400" height="285" rx="18" />
  <text class="box-title" x="1265" y="1015">Text Output</text>
  <text class="box-text" x="1265" y="1060">TextShapeResult</text>
  <text class="box-text" x="1265" y="1095">RasterizedText</text>
  <text class="box-text" x="1265" y="1130">RGBA pixels</text>
  <text class="box-text" x="1265" y="1165">width / height</text>
  <text class="tiny" x="1265" y="1205">Consumed by MonoGame adapter</text>

  <rect class="adapter" x="1780" y="220" width="520" height="1260" rx="22" />
  <text class="section-title" x="1820" y="280">4. Cerneala.Drawing.MonoGame</text>
  <text class="small" x="1820" y="320">Concrete adapter / final renderer</text>

  <rect class="neutral" x="1830" y="370" width="420" height="250" rx="18" />
  <text class="box-title" x="1865" y="425">MonoGameDrawingBackend</text>
  <text class="box-text" x="1865" y="470">Implements IDrawingBackend.</text>
  <text class="box-text" x="1865" y="505">Reads DrawCommandList.</text>
  <text class="box-text" x="1865" y="540">Uses SpriteBatch.</text>
  <text class="box-text" x="1865" y="575">Draws to screen.</text>

  <rect class="neutral" x="1830" y="680" width="420" height="285" rx="18" />
  <text class="box-title" x="1865" y="735">Primitive Commands</text>
  <text class="box-text" x="1865" y="780">Rectangles - white pixel</text>
  <text class="box-text" x="1865" y="815">Images - Texture2D</text>
  <text class="box-text" x="1865" y="850">Text - texture from</text>
  <text class="box-text" x="1865" y="885">RasterizedText pixels</text>
  <text class="tiny" x="1865" y="925">MonoGame details stay here</text>

  <rect class="output" x="1830" y="1030" width="420" height="210" rx="18" />
  <text class="box-title" x="1865" y="1085">Final Output</text>
  <text class="box-text" x="1865" y="1130">MonoGame window</text>
  <text class="box-text" x="1865" y="1165">GraphicsDevice</text>
  <text class="box-text" x="1865" y="1200">SpriteBatch draw calls</text>

  <path class="line" d="M420 1025 C500 1025 520 490 610 490" />
  <text class="label" x="445" y="840">records intent</text>

  <path class="line" d="M1030 820 C1110 820 1135 1080 1230 1080" />
  <text class="label" x="1075" y="1010">text commands need preparation</text>

  <path class="line" d="M1630 1090 C1700 1090 1740 820 1830 820" />
  <text class="label" x="1645" y="970">prepared text pixels</text>

  <path class="line" d="M1030 820 C1390 820 1510 500 1830 500" />
  <text class="label" x="1260" y="610">command list to adapter</text>

  <path class="line" d="M2250 1135 C2300 1135 2310 1135 2325 1135" />
  <text class="label" x="2110" y="1295">final draw happens here</text>

  <rect class="warning" x="80" y="1540" width="2220" height="190" rx="22" />
  <text class="note-title" x="120" y="1595">Important boundary rules</text>
  <text class="note-text" x="120" y="1640">1. Controls never call SpriteBatch, Skia, or HarfBuzz directly.</text>
  <text class="note-text" x="120" y="1680">2. Cerneala.Drawing core records abstract commands only. It does not know how rendering happens.</text>
  <text class="note-text" x="120" y="1720">3. Skia/HarfBuzz prepare text. MonoGame adapter performs the final on-screen drawing.</text>

  <path class="no-line" d="M820 1350 C870 1540 1450 1540 1430 1245" />
  <text class="label" x="940" y="1515">NO direct dependency from Drawing core to Skia/HarfBuzz</text>

  <path class="no-line" d="M820 1350 C1000 1610 2020 1605 2040 1240" />
  <text class="label" x="1250" y="1585">NO direct dependency from Drawing core to MonoGame</text>
</svg>
